{"title":"MassageGirls.18.Jenna.XXX.wmv","uid":10617715,"size":324287351,"categoryP":"porn","categoryS":"movies","magnet":"?xt=urn:btih:a1d9f4d82922b28102fb0d78a2be45739c34c57b&amp;dn=MassageGirls.18.Jenna.XXX.wmv&amp;tr=udp%3A%2F%2Ftracker.openbittorrent.com%3A80&amp;tr=udp%3A%2F%2Fopen.demonii.com%3A1337&amp;tr=udp%3A%2F%2Ftracker.coppersurfer.tk%3A6969&amp;tr=udp%3A%2F%2Fexodus.desync.com%3A6969","seeders":1,"leechers":2,"uploader":"XXXmegathor","files":1,"time":1406142416,"description":"MassageGirls.18.Jenna.XXX\n\nSCREENIES &lt;a href=&quot;\nhttp://www.xxxtrapics.com/image/Mc&quot; rel=&quot;nofollow&quot; target=&quot;_NEW&quot;&gt;\nhttp://www.xxxtrapics.com/image/Mc&lt;/a&gt;\n\n\nDuration : 27mn 30s\nBit rate mode : Constant\nBit rate : 1 477 Kbps\nWidth : 1 000 pixels\nHeight : 564 pixels\nDisplay aspect ratio : 16:9\nFrame rate : 30.000 fps\nBit depth : 8 bits\nScan type : Progressive\nCompression mode : Lossy\nBits/(Pixel*Frame) : 0.087\nStream size : 291 MiB (94%)\nLanguage : English (US)\n\nAudio\nID : 1\nFormat : WMA\nFormat version : Version 2\nCodec ID : 161\nCodec ID/Info : Windows Media Audio\nDescription of the codec : Windows Media Audio 9.2 - 96 kbps, 44 kHz, stereo (A/V) 1-pass CBR\nDuration : 27mn 30s\nBit rate mode : Constant\nBit rate : 96.0 Kbps\nChannel(s) : 2 channels\nSampling rate : 44.1 KHz\nBit depth : 16 bits\nStream size : 18.9 MiB (6%)\nLanguage : English (US)\n\n\n","torrent":{"xt":"urn:btih:a1d9f4d82922b28102fb0d78a2be45739c34c57b","amp;dn":"MassageGirls.18.Jenna.XXX.wmv","amp;tr":["udp%3A%2F%2Ftracker.openbittorrent.com%3A80","udp%3A%2F%2Fopen.demonii.com%3A1337","udp%3A%2F%2Ftracker.coppersurfer.tk%3A6969","udp%3A%2F%2Fexodus.desync.com%3A6969"],"infoHash":"a1d9f4d82922b28102fb0d78a2be45739c34c57b","infoHashBuffer":{"type":"Buffer","data":[161,217,244,216,41,34,178,129,2,251,13,120,162,190,69,115,156,52,197,123]},"announce":[],"urlList":[]}}